<svg xmlns="http://www.w3.org/2000/svg" width="18" height="20" viewBox="0 0 18 20">
    <path fill="#FFF" fill-rule="evenodd" d="M8.636 13.447c-2.283.847-3.87 1.816-4.897 2.689.723.657 2.077.817 3.427.316 1.718-.638 2.773-2.101 2.356-3.268-.005-.015-.012-.027-.017-.041-.282.093-.571.194-.869.304m1.404 3.932c-4.367 1.62-7.957.667-8.109.243-.261-.73 1.41-3.168 6.403-5.02 4.994-1.853 7.78-1.167 8.071-.35.173.482-1.998 3.506-6.365 5.127m4.192-9.094c-2.565-5.52-3.899-7.617-8.09-7.53-1.493.03-1.135-1.081-2.273-.66-1.137.423-.161 1.04-1.325 1.995C-.722 4.77-.42 7.25 1.094 13.16c.638 2.489-1.538 2.61-.677 5.024.628 1.76 5.263 2.496 10.154.681 4.89-1.814 7.977-5.416 7.348-7.175-.861-2.413-2.606-1.08-3.687-3.405"/>
</svg>
