<svg xmlns="http://www.w3.org/2000/svg" xmlns:xlink="http://www.w3.org/1999/xlink" width="18" height="21" viewBox="0 0 18 21">
    <defs>
        <path id="a" d="M0 0v20.09h6.582s4.387 6.696 6.581 0c.49-1.498.762-3.331.887-5.275C14.485 8.071 13.163 0 13.163 0H0z"/>
    </defs>
    <g fill="none" fill-rule="evenodd">
        <path fill="#FFF" d="M14.823 12.68c.27.274.27.72 0 .994l-3.059 3.114a.683.683 0 0 1-.977 0 .712.712 0 0 1 0-.995l3.059-3.114a.683.683 0 0 1 .977 0m.01 4.118a.69.69 0 0 1-.49.206.69.69 0 0 1-.488-.206.71.71 0 0 1 0-.995.69.69 0 0 1 .489-.206.69.69 0 0 1 .488.206.715.715 0 0 1 0 .995m-4.054-4.127a.69.69 0 0 1 .488-.206.693.693 0 0 1 .691.703.715.715 0 0 1-.202.498.692.692 0 0 1-.489.206.69.69 0 0 1-.488-.206.715.715 0 0 1 0-.995m-3.164 2.064c0 2.918 2.324 5.284 5.191 5.284s5.19-2.366 5.19-5.284c0-2.919-2.323-5.284-5.19-5.284-2.867 0-5.19 2.365-5.19 5.284"/>
        <g transform="translate(0 .04)">
            <mask id="b" fill="#fff">
                <use xlink:href="#a"/>
            </mask>
            <path fill="#FFF" d="M5.131 12.617H3.908a.697.697 0 0 1-.691-.704c0-.388.309-.703.69-.703h1.224c.382 0 .691.315.691.703 0 .389-.31.704-.691.704M3.908 7.473h4.894c.381 0 .69.315.69.704 0 .388-.309.703-.69.703H3.908a.697.697 0 0 1-.691-.703c0-.389.309-.704.69-.704m0-3.736h4.895c.381 0 .69.315.69.703 0 .389-.309.704-.69.704H3.908a.697.697 0 0 1-.691-.704c0-.388.309-.703.69-.703m2.325 10.958c0-3.69 2.949-6.691 6.573-6.691.12 0 .24.003.358.01V.704a.697.697 0 0 0-.69-.704H.69A.697.697 0 0 0 0 .703v18.683c0 .389.31.704.691.704h8.232a6.724 6.724 0 0 1-2.69-5.395" mask="url(#b)"/>
        </g>
    </g>
</svg>
