<svg xmlns="http://www.w3.org/2000/svg" width="18" height="22" viewBox="0 0 18 22">
    <path fill="#FFF" fill-rule="evenodd" d="M10.078 6.278l-.243 3.584c-.054.458-.107.809-.215 1.051a.6.6 0 0 1-.566.35c-.27 0-.458-.107-.566-.35-.108-.242-.189-.566-.216-1.024l-.35-3.718c-.027-.35-.054-.674-.054-.997 0-.566.081-.997.216-1.294.135-.296.431-.458.862-.458.35 0 .647.108.862.35.216.243.324.566.324.97 0 .324-.027.836-.054 1.536m-.297 8.246a1.193 1.193 0 0 1-.808.296c-.296 0-.566-.107-.781-.296-.216-.189-.324-.485-.324-.835 0-.324.108-.566.324-.782.215-.215.485-.323.808-.323.323 0 .593.108.808.323.216.216.324.485.324.782 0 .35-.108.62-.35.835m1.32 3.584C18 18.108 18 13.716 18 9.08 18 4.04 18 0 9 0S0 4.042 0 9.08c0 4.636 0 9.028 6.898 9.028 1.186 2.02 3.557 3.395 5.982 3.449-.943-.485-1.67-1.24-1.994-2.129-.161-.404-.27-1.32.216-1.32"/>
</svg>
