<svg xmlns="http://www.w3.org/2000/svg" xmlns:xlink="http://www.w3.org/1999/xlink" width="18" height="12" viewBox="0 0 18 12">
    <defs>
        <path id="a" d="M14.137 5.738V.035H.01V11.44h14.127z"/>
    </defs>
    <g fill="none" fill-rule="evenodd">
        <path fill="#FFF" d="M3.567 9.971a.736.736 0 1 0 0-1.47.736.736 0 0 0 0 1.47M1.326 8.884l.12-.45a.115.115 0 0 1 .12-.086l.082.006c.053-.115.116-.224.188-.327l-.047-.068a.115.115 0 0 1 .013-.147l.33-.33c.039-.04.1-.046.146-.015l.069.047c.102-.073.211-.136.326-.19l-.006-.082a.115.115 0 0 1 .085-.12L3.202 7a.116.116 0 0 1 .134.06l.036.075a2.142 2.142 0 0 1 .377 0l.036-.076a.115.115 0 0 1 .134-.061l.451.12c.054.013.09.064.086.119l-.006.082c.115.053.225.116.327.188l.069-.047a.116.116 0 0 1 .146.014l.331.328c.04.04.046.101.015.147l-.047.068c.073.103.136.212.19.326l.082-.006a.115.115 0 0 1 .12.085l.123.45a.115.115 0 0 1-.061.134l-.075.036a2.133 2.133 0 0 1 .001.377l.075.036c.05.023.076.08.062.133l-.12.45a.115.115 0 0 1-.12.086l-.082-.005a2.111 2.111 0 0 1-.188.326l.047.069a.115.115 0 0 1-.014.146l-.329.33c-.039.04-.1.046-.146.015l-.069-.046a2.113 2.113 0 0 1-.326.19l.006.082a.115.115 0 0 1-.085.12l-.45.122a.116.116 0 0 1-.135-.061l-.036-.075a2.142 2.142 0 0 1-.377.001l-.036.075a.116.116 0 0 1-.133.062l-.452-.12a.115.115 0 0 1-.085-.12l.005-.082a2.115 2.115 0 0 1-.327-.187l-.068.046A.116.116 0 0 1 2.14 11l-.33-.33a.115.115 0 0 1-.015-.146l.046-.068a2.11 2.11 0 0 1-.19-.326l-.082.006a.115.115 0 0 1-.12-.084l-.122-.45a.115.115 0 0 1 .06-.134l.075-.037a2.134 2.134 0 0 1 0-.376l-.075-.036a.115.115 0 0 1-.062-.134M9.537 9.971a.736.736 0 1 0 0-1.47.736.736 0 0 0 0 1.47M7.296 8.884l.12-.45a.115.115 0 0 1 .119-.086l.082.006c.053-.115.116-.224.188-.327l-.046-.068a.115.115 0 0 1 .013-.147l.33-.33c.038-.04.1-.046.146-.015l.068.047c.103-.073.212-.136.326-.19l-.006-.082a.115.115 0 0 1 .085-.12L9.171 7a.116.116 0 0 1 .135.06l.036.075a2.145 2.145 0 0 1 .377 0l.036-.076a.116.116 0 0 1 .134-.061l.451.12c.054.013.09.064.086.119l-.006.082c.115.053.224.116.327.188l.069-.047a.116.116 0 0 1 .146.014l.331.328c.04.04.045.101.014.147l-.046.068c.073.103.136.212.19.326l.082-.006a.115.115 0 0 1 .12.085l.123.45a.115.115 0 0 1-.061.134l-.075.036a2.133 2.133 0 0 1 .001.377l.075.036c.05.023.076.08.062.133l-.12.45a.115.115 0 0 1-.12.086l-.082-.005a2.111 2.111 0 0 1-.188.326l.047.069a.115.115 0 0 1-.014.146l-.33.33c-.038.04-.1.046-.146.015l-.068-.046a2.113 2.113 0 0 1-.326.19l.006.082a.115.115 0 0 1-.085.12l-.45.122a.116.116 0 0 1-.135-.061l-.036-.075a2.142 2.142 0 0 1-.377.001l-.036.075a.116.116 0 0 1-.134.062l-.451-.12a.115.115 0 0 1-.086-.12l.006-.082a2.115 2.115 0 0 1-.327-.187l-.068.046A.116.116 0 0 1 8.11 11l-.331-.33a.115.115 0 0 1-.014-.146l.046-.068a2.11 2.11 0 0 1-.19-.326l-.082.006a.115.115 0 0 1-.12-.084l-.122-.45a.115.115 0 0 1 .06-.134l.075-.037a2.134 2.134 0 0 1 0-.376l-.076-.036a.115.115 0 0 1-.061-.134M14.808 7.348L18 11.478h-3.208z"/>
        <g transform="matrix(-1 0 0 1 14.571 .038)">
            <mask id="b" fill="#fff">
                <use xlink:href="#a"/>
            </mask>
            <path fill="#FFF" d="M4.646 4.354h.307l-.045.597-.315.096.053-.693zm6 .964H8.222l3.154-.958-.73.958zm2.427-2.087a.385.385 0 1 1 0 .77.385.385 0 0 1 0-.77zm-7.76.332h3.553l-.009.19-1.06.322H5.275l.039-.512zm-.608 0h.308l-.039.512h-.307l.038-.512zm.06-.79h.309l-.04.51h-.308l.039-.51zm.06-.791h.309l-.04.51h-.308l.039-.51zm.33-.28h-.31l.026-.333h.31l-.026.333zm3.814-.333l-.016.333H5.455l.025-.333h3.489zm.284.333l.015-.333h.204l.025.333h-.244zm.303.79h-.34l.024-.51h.278l.038.51zm-4.162 0l.04-.51H8.94l-.024.51H5.394zm3.51.28l-.025.512H5.334l.04-.511h3.53zm.712.512H9.18l.024-.511h.374l.04.51zm-.455.38l.005-.1h.317l-.322.1zM5.214 4.857l.039-.504h1.623l-1.662.504zM1.56 10.263l.097-.262h.895a2.609 2.609 0 0 1 2.484-3.41 2.609 2.609 0 0 1 2.61 2.6h.75a2.61 2.61 0 1 1 5.17-.502l.014-.032.558-.814V2.577h-1.404l-2.243.68-.208-2.76h-.01V.035H3.313L3.57.83h.466l-.34 4.488-2.058 1.895-.004.004v.003L.327 9.887H.01v1.553H1.56v-1.177z" mask="url(#b)"/>
        </g>
    </g>
</svg>
