<svg xmlns="http://www.w3.org/2000/svg" xmlns:xlink="http://www.w3.org/1999/xlink" width="18" height="16" viewBox="0 0 18 16">
    <defs>
        <path id="a" d="M0 7.939V0h18v15.878H0v-7.94z"/>
    </defs>
    <g fill="none" fill-rule="evenodd">
        <mask id="b" fill="#fff">
            <use xlink:href="#a"/>
        </mask>
        <path fill="#FFF" d="M13.152 7.628a1.177 1.177 0 1 1 0-2.353 1.177 1.177 0 0 1 0 2.353m-4.151 0a1.177 1.177 0 1 1 0-2.353 1.177 1.177 0 0 1 0 2.353m-4.152 0a1.177 1.177 0 1 1 0-2.353 1.177 1.177 0 0 1 0 2.353M17.24 0H.762C.341 0 0 .34 0 .76v11.564c0 .42.34.76.761.76h9.136l3.504 2.617c.473.353.86.16.86-.43v-2.187h2.978c.42 0 .761-.34.761-.76V.76a.76.76 0 0 0-.76-.76" mask="url(#b)"/>
    </g>
</svg>
