<svg xmlns="http://www.w3.org/2000/svg" width="18" height="18" viewBox="0 0 18 18">
    <path fill="#FFF" fill-rule="nonzero" d="M4.672 8.35l.066-.06.065.06c.574.54 1.21.838 1.788.838.608 0 1.235-.264 1.815-.763l.048-.041.128.062c.108.098.301.24.388.282l.12.058-.013.013.045.027c.11.065.227.128.36.195.135.06.25.104.373.145.024.008.596.193 1.249.495l.117.036c.62.236.882.569.891.58.963 1.429 1.125 4.548 1.14 4.897-.007.487-.145.614-.182.638-2.157.965-5.416 1.216-6.046 1.256h-.018l-.018-.004a.22.22 0 0 0-.07-.01l-.022.001a6.33 6.33 0 0 1-.448.018h-.105c-.393-.024-3.906-.254-6.155-1.254-.045-.02-.179-.173-.188-.62 0-.034.116-3.4 1.126-4.9.05-.063.324-.383.873-.593.483-.148 1.676-.544 2.329-1.016.027-.017.055-.045.084-.074.047-.052.146-.16.26-.266zm6.721.843l-.09-.026c-.145-.068-.3-.135-.459-.2.225-.105.409-.208.546-.308a.315.315 0 0 0 .064-.056c.05-.053.116-.125.194-.197l.041-.039.04.04c.43.403.904.624 1.336.624.455 0 .923-.197 1.355-.569l.031-.025.087.042c.08.073.224.178.289.21l.074.036-.009.01.048.027c.082.048.17.095.268.144.1.045.187.079.278.109.017.006.44.141.927.367l.086.027c.444.17.638.403.656.427.719 1.065.834 3.372.845 3.629-.005.357-.104.448-.129.464-1.351.605-3.29.832-4.106.904-.074-1.059-.335-3.553-1.208-4.85l-.037-.045c-.177-.22-.564-.53-1.127-.745zm-.505-3.855l.015-.018a.212.212 0 0 0 .089-.207c-.162-.975-.057-1.384-.02-1.486.282-.868 1.172-1.273 1.347-1.344.035-.014.103-.034.175-.046l.022-.006.134-.007.001.01.04-.004a.624.624 0 0 0 .08-.011l.046-.01c.028 0 .38.046.89.202l.358.123c.652.193.954.552 1.01.625.524.595.384 1.49.253 1.97a.208.208 0 0 0 .028.17l.03.037c.036.05.07.246-.044.67a.544.544 0 0 1-.137.3.198.198 0 0 0-.053.11c-.177 1.038-1.108 2.2-2.087 2.2-.832 0-1.78-1.07-1.951-2.2a.22.22 0 0 0-.056-.116c-.07-.072-.114-.177-.142-.335-.083-.294-.091-.531-.028-.627zm-7.24-1.12l.023-.025a.272.272 0 0 0 .114-.265c-.22-1.321-.076-1.87-.027-2.008C4.14.746 5.344.198 5.581.1c.05-.018.142-.046.239-.061l.026-.007.198-.01.001.012.043-.004c.04-.004.078-.01.124-.02L6.257 0c.037 0 .501.059 1.203.273l.482.166c.882.26 1.292.749 1.367.846.71.805.52 2.016.344 2.666a.265.265 0 0 0 .034.217l.04.05c.064.087.089.376-.056.913a.74.74 0 0 1-.19.41.277.277 0 0 0-.066.141c-.24 1.404-1.499 2.975-2.824 2.975-1.126 0-2.41-1.445-2.643-2.974a.266.266 0 0 0-.07-.147c-.096-.1-.158-.244-.195-.457-.112-.402-.123-.726-.035-.86z"/>
</svg>
