<svg style="background: rgb(238, 238, 238) none repeat scroll 0% 0%;" viewBox="0 0 600 400" xmlns="http://www.w3.org/2000/svg"><g transform="translate(50,40)" class="chart"><circle fill="#000" r="3" cy="258.3333333333333" cx="0" class=".datum"></circle><circle fill="#000" r="3" cy="206.66666666666669" cx="57.77777777777777" class=".datum"></circle><circle fill="#000" r="3" cy="129.16666666666666" cx="115.55555555555554" class=".datum"></circle><circle fill="#000" r="3" cy="206.66666666666669" cx="173.33333333333331" class=".datum"></circle><circle fill="#000" r="3" cy="0" cx="231.1111111111111" class=".datum"></circle><circle fill="#000" r="3" cy="258.3333333333333" cx="288.8888888888889" class=".datum"></circle><circle fill="#000" r="3" cy="180.83333333333331" cx="346.66666666666663" class=".datum"></circle><circle fill="#000" r="3" cy="155" cx="404.44444444444446" class=".datum"></circle><circle fill="#000" r="3" cy="51.66666666666663" cx="462.2222222222222" class=".datum"></circle><circle fill="#000" r="3" cy="310" cx="520" class=".datum"></circle><circle fill="#000" r="3" cy="206.66666666666669" cx="0" class=".datum"></circle><circle fill="#000" r="3" cy="155" cx="57.77777777777777" class=".datum"></circle><circle fill="#000" r="3" cy="67.16666666666666" cx="115.55555555555554" class=".datum"></circle><circle fill="#000" r="3" cy="258.3333333333333" cx="173.33333333333331" class=".datum"></circle><circle fill="#000" r="3" cy="51.66666666666663" cx="231.1111111111111" class=".datum"></circle><circle fill="#000" r="3" cy="206.66666666666669" cx="288.8888888888889" class=".datum"></circle><circle fill="#000" r="3" cy="129.16666666666666" cx="346.66666666666663" class=".datum"></circle><circle fill="#000" r="3" cy="103.33333333333334" cx="404.44444444444446" class=".datum"></circle><circle fill="#000" r="3" cy="258.3333333333333" cx="462.2222222222222" class=".datum"></circle><circle fill="#000" r="3" cy="258.3333333333333" cx="520" class=".datum"></circle><path stroke-width="2" stroke="#1f77b4" fill="none" d="M0,258.3333333333333L57.77777777777777,206.66666666666669L115.55555555555554,129.16666666666666L173.33333333333331,206.66666666666669L231.1111111111111,0L288.8888888888889,258.3333333333333L346.66666666666663,180.83333333333331L404.44444444444446,155L462.2222222222222,51.66666666666663L520,310" class="line"></path><path stroke-width="2" stroke="#ff7f0e" fill="none" d="M0,206.66666666666669L57.77777777777777,155L115.55555555555554,67.16666666666666L173.33333333333331,258.3333333333333L231.1111111111111,51.66666666666663L288.8888888888889,206.66666666666669L346.66666666666663,129.16666666666666L404.44444444444446,103.33333333333334L462.2222222222222,258.3333333333333L520,258.3333333333333" class="line"></path></g><g text-anchor="middle" font-family="sans-serif" font-size="10" fill="none" transform="translate(50,350)" class="x-axis"><path d="M0.5,6V0.5H520.5V6" stroke="#000" class="domain"></path><g transform="translate(0,0)" opacity="1" class="tick"><line x2="0.5" x1="0.5" y2="6" stroke="#000"></line><text dy="0.71em" x="0.5" y="9" fill="#000">0</text></g><g transform="translate(57.77777777777777,0)" opacity="1" class="tick"><line x2="0.5" x1="0.5" y2="6" stroke="#000"></line><text dy="0.71em" x="0.5" y="9" fill="#000">1</text></g><g transform="translate(115.55555555555554,0)" opacity="1" class="tick"><line x2="0.5" x1="0.5" y2="6" stroke="#000"></line><text dy="0.71em" x="0.5" y="9" fill="#000">2</text></g><g transform="translate(173.33333333333331,0)" opacity="1" class="tick"><line x2="0.5" x1="0.5" y2="6" stroke="#000"></line><text dy="0.71em" x="0.5" y="9" fill="#000">3</text></g><g transform="translate(231.1111111111111,0)" opacity="1" class="tick"><line x2="0.5" x1="0.5" y2="6" stroke="#000"></line><text dy="0.71em" x="0.5" y="9" fill="#000">4</text></g><g transform="translate(288.8888888888889,0)" opacity="1" class="tick"><line x2="0.5" x1="0.5" y2="6" stroke="#000"></line><text dy="0.71em" x="0.5" y="9" fill="#000">5</text></g><g transform="translate(346.66666666666663,0)" opacity="1" class="tick"><line x2="0.5" x1="0.5" y2="6" stroke="#000"></line><text dy="0.71em" x="0.5" y="9" fill="#000">6</text></g><g transform="translate(404.44444444444446,0)" opacity="1" class="tick"><line x2="0.5" x1="0.5" y2="6" stroke="#000"></line><text dy="0.71em" x="0.5" y="9" fill="#000">7</text></g><g transform="translate(462.2222222222222,0)" opacity="1" class="tick"><line x2="0.5" x1="0.5" y2="6" stroke="#000"></line><text dy="0.71em" x="0.5" y="9" fill="#000">8</text></g><g transform="translate(520,0)" opacity="1" class="tick"><line x2="0.5" x1="0.5" y2="6" stroke="#000"></line><text dy="0.71em" x="0.5" y="9" fill="#000">9</text></g></g><g text-anchor="end" font-family="sans-serif" font-size="10" fill="none" transform="translate(50,40)" class="y-axis"><path d="M-6,310.5H0.5V0.5H-6" stroke="#000" class="domain"></path><g transform="translate(0,310)" opacity="1" class="tick"><line y2="0.5" y1="0.5" x2="-6" stroke="#000"></line><text dy="0.32em" y="0.5" x="-9" fill="#000">2.0</text></g><g transform="translate(0,284.1666666666667)" opacity="1" class="tick"><line y2="0.5" y1="0.5" x2="-6" stroke="#000"></line><text dy="0.32em" y="0.5" x="-9" fill="#000">2.5</text></g><g transform="translate(0,258.3333333333333)" opacity="1" class="tick"><line y2="0.5" y1="0.5" x2="-6" stroke="#000"></line><text dy="0.32em" y="0.5" x="-9" fill="#000">3.0</text></g><g transform="translate(0,232.5)" opacity="1" class="tick"><line y2="0.5" y1="0.5" x2="-6" stroke="#000"></line><text dy="0.32em" y="0.5" x="-9" fill="#000">3.5</text></g><g transform="translate(0,206.66666666666669)" opacity="1" class="tick"><line y2="0.5" y1="0.5" x2="-6" stroke="#000"></line><text dy="0.32em" y="0.5" x="-9" fill="#000">4.0</text></g><g transform="translate(0,180.83333333333331)" opacity="1" class="tick"><line y2="0.5" y1="0.5" x2="-6" stroke="#000"></line><text dy="0.32em" y="0.5" x="-9" fill="#000">4.5</text></g><g transform="translate(0,155)" opacity="1" class="tick"><line y2="0.5" y1="0.5" x2="-6" stroke="#000"></line><text dy="0.32em" y="0.5" x="-9" fill="#000">5.0</text></g><g transform="translate(0,129.16666666666666)" opacity="1" class="tick"><line y2="0.5" y1="0.5" x2="-6" stroke="#000"></line><text dy="0.32em" y="0.5" x="-9" fill="#000">5.5</text></g><g transform="translate(0,103.33333333333334)" opacity="1" class="tick"><line y2="0.5" y1="0.5" x2="-6" stroke="#000"></line><text dy="0.32em" y="0.5" x="-9" fill="#000">6.0</text></g><g transform="translate(0,77.5)" opacity="1" class="tick"><line y2="0.5" y1="0.5" x2="-6" stroke="#000"></line><text dy="0.32em" y="0.5" x="-9" fill="#000">6.5</text></g><g transform="translate(0,51.66666666666663)" opacity="1" class="tick"><line y2="0.5" y1="0.5" x2="-6" stroke="#000"></line><text dy="0.32em" y="0.5" x="-9" fill="#000">7.0</text></g><g transform="translate(0,25.83333333333337)" opacity="1" class="tick"><line y2="0.5" y1="0.5" x2="-6" stroke="#000"></line><text dy="0.32em" y="0.5" x="-9" fill="#000">7.5</text></g><g transform="translate(0,0)" opacity="1" class="tick"><line y2="0.5" y1="0.5" x2="-6" stroke="#000"></line><text dy="0.32em" y="0.5" x="-9" fill="#000">8.0</text></g></g></svg>